# xmcd
#
# Track frame offsets: 
#        150
#        18142
#        32366
#        48965
#        65001
#        92005
#        111319
#        131203
#        165960
#        200234
#
# Disc length: 2990 seconds
#
# Revision: 0
# Processed by: cddbd v1.5.2PL0 Copyright (c) Steve Scherf et al.
# Submitted via: ExactAudioCopy v0.95b4
#
DISCID=810bac0a
DTITLE=Eric Clapton - From The Cradle To The Fillmore West CD 2
DYEAR=1995
DGENRE=Blues
TTITLE0=Sinner's Prayer
TTITLE1=I Can't Judge Nobody
TTITLE2=Someday After A While
TTITLE3=Tore Down
TTITLE4=Have You Ever Loved A Woman
TTITLE5=Crosscut Saw
TTITLE6=Five Long Years
TTITLE7=Crossroads
TTITLE8=Groanin' The Blues
TTITLE9=Ain't Nobody's Business
EXTD=
EXTT0=
EXTT1=
EXTT2=
EXTT3=
EXTT4=
EXTT5=
EXTT6=
EXTT7=
EXTT8=
EXTT9=
PLAYORDER=
